<?xml version="1.0" encoding="utf-8"?>
<!-- Generator: Adobe Illustrator 26.4.1, SVG Export Plug-In . SVG Version: 6.00 Build 0)  -->
<svg version="1.2" baseProfile="tiny" id="Layer_2" xmlns="http://www.w3.org/2000/svg" xmlns:xlink="http://www.w3.org/1999/xlink"
	 x="0px" y="0px" viewBox="0 0 1080 1080" overflow="visible" xml:space="preserve">
<g id="Layer_1">
	<path fill="#27AAE1" d="M367.87,743.71c-0.83-63.49-1.67-126.98-2.5-190.47c20.4-1.67,40.8-3.33,61.2-5
		c11,17.47,14.14,32.53,14.36,44.34c0.34,18.02-6.18,24.63-2.81,40.28c3.03,14.06,13.52,33.01,27.79,34.03
		c15.05,1.08,28.29-18.21,33.72-31.54c10.35-25.4-2.93-40.76,8.27-53.55c11.11-12.68,38.47-13.91,50.11-2.34
		c11.68,11.6-0.72,27.86,11.24,54.33c1.88,4.16,12.83,28.39,29.04,28.73c15.55,0.32,27.63-21.51,31.85-34.81
		c5.77-18.2,1.77-36.07,0.47-41.68c-3.13-13.53-8.51-21.33-7.96-37.47c0.21-6.2,1.13-11.41,2.02-15.58
		c3.52-16.41,10.2-24.47,13.9-57.49c2.82-25.13,4.08-37.99-2.81-52.46c-8.24-17.3-26.93-34.55-48.71-36.53
		c-30.39-2.77-38,26.8-70.25,26.23c-29.16-0.52-35.43-24.9-61.82-21.54c-20.53,2.61-37.32,19.99-44.96,37.47
		c-11.32,25.91-1.41,49.48,0.31,53.39c-17.9-1.25-35.8-2.5-53.71-3.75c-0.52-48.71-1.04-97.42-1.56-146.13
		c30.23-1.19,75.77-2.34,131.45-1.25c49.98,0.98,74.97,1.47,89.93,5c64.66,15.23,139.41,77.31,156.12,167.36
		c20.08,108.22-52.15,210.86-126.14,236.05c-17.3,5.89-44.84,6.43-99.92,7.49C448.06,747.96,400.1,745.81,367.87,743.71z"/>
</g>
<g>
</g>
<g>
</g>
<g>
</g>
<g>
</g>
<g>
</g>
</svg>
